<?xml version="1.0" encoding="utf-8"?>
<!-- Generator: Adobe Illustrator 18.1.1, SVG Export Plug-In . SVG Version: 6.00 Build 0)  -->
<svg version="1.2" baseProfile="tiny" id="Layer_1" xmlns="http://www.w3.org/2000/svg" xmlns:xlink="http://www.w3.org/1999/xlink"
	 x="0px" y="0px" viewBox="0 0 50 50" xml:space="preserve">
<circle fill="#EB8023" cx="25" cy="25" r="25"/>
<g>
	<g>
		<path fill="#FFFFFF" d="M36.5,19.5h-23c-0.8,0-1.5-0.7-1.5-1.5s0.7-1.5,1.5-1.5h23c0.8,0,1.5,0.7,1.5,1.5S37.3,19.5,36.5,19.5z"/>
	</g>
	<g>
		<path fill="#FFFFFF" d="M36.5,33.5h-23c-0.8,0-1.5-0.7-1.5-1.5s0.7-1.5,1.5-1.5h23c0.8,0,1.5,0.7,1.5,1.5S37.3,33.5,36.5,33.5z"/>
	</g>
	<g>
		<path fill="#FFFFFF" d="M36.5,26.5h-23c-0.8,0-1.5-0.7-1.5-1.5s0.7-1.5,1.5-1.5h23c0.8,0,1.5,0.7,1.5,1.5S37.3,26.5,36.5,26.5z"/>
	</g>
</g>
</svg>
