<?xml version="1.0" encoding="utf-8"?>
<!-- Generator: Adobe Illustrator 18.1.1, SVG Export Plug-In . SVG Version: 6.00 Build 0)  -->
<svg version="1.2" baseProfile="tiny" id="Layer_1" xmlns="http://www.w3.org/2000/svg" xmlns:xlink="http://www.w3.org/1999/xlink"
	 x="0px" y="0px" viewBox="0 0 274 120" xml:space="preserve">
<rect x="6" y="47.5" fill="#5BC1AE" width="3.7" height="21.8"/>
<rect x="18.1" y="20.3" fill="#02BFDF" width="3.7" height="49"/>
<rect x="12" y="32.3" fill="#EB8023" width="3.7" height="37.1"/>
<rect x="0" y="62.2" fill="#02BFDF" width="3.7" height="7.1"/>
<rect x="24.1" y="26" fill="#5BC1AE" width="3.7" height="43.4"/>
<rect x="36.1" y="12.3" fill="#02BFDF" width="3.7" height="57"/>
<rect x="30.1" y="46.4" fill="#EB8023" width="3.7" height="23"/>
<rect x="42.1" y="0.2" fill="#5BC1AE" width="3.7" height="69.2"/>
<rect x="54.2" y="39.4" fill="#02BFDF" width="3.7" height="30"/>
<rect x="48.2" y="6.8" fill="#EB8023" width="3.7" height="62.6"/>
<rect x="60.2" y="28.7" fill="#5BC1AE" width="3.7" height="40.7"/>
<rect x="72.2" y="55.1" fill="#02BFDF" width="3.7" height="14.3"/>
<rect x="66.2" y="40.9" fill="#EB8023" width="3.7" height="28.5"/>
<rect x="78.5" y="60.2" fill="#5BC1AE" width="3.7" height="9.2"/>
<rect x="90.5" y="65.8" fill="#02BFDF" width="3.7" height="3.6"/>
<rect x="84.5" y="67" fill="#EB8023" width="3.7" height="2.3"/>
<rect x="66.2" y="69.4" fill="#B1E0D6" width="3.7" height="15.9"/>
<rect x="54.2" y="69.4" fill="#F3BF99" width="3.7" height="35.8"/>
<rect x="60.2" y="69.4" fill="#98DFEE" width="3.7" height="27.1"/>
<rect x="72.2" y="69.4" fill="#F3BF99" width="3.7" height="5.2"/>
<rect x="84.5" y="69.4" fill="#B1E0D6" width="3.7" height="1.7"/>
<rect x="78.5" y="69.4" fill="#98DFEE" width="3.7" height="3.4"/>
<rect x="90.5" y="69.4" fill="#F3BF99" width="3.7" height="1.6"/>
<rect x="48.2" y="69.4" fill="#B1E0D6" width="3.7" height="31.7"/>
<rect x="36.1" y="69.4" fill="#F3BF99" width="3.7" height="41.6"/>
<rect x="42.1" y="69.4" fill="#98DFEE" width="3.7" height="16.8"/>
<rect x="30.1" y="69.4" fill="#B1E0D6" width="3.7" height="50.4"/>
<rect x="18.1" y="69.4" fill="#F3BF99" width="3.7" height="21.9"/>
<rect x="24.1" y="69.4" fill="#98DFEE" width="3.7" height="45.7"/>
<rect x="12" y="69.4" fill="#B1E0D6" width="3.7" height="29.7"/>
<rect x="0" y="69.4" fill="#F3BF99" width="3.7" height="10.4"/>
<rect x="6" y="69.4" fill="#98DFEE" width="3.7" height="20.8"/>
<g>
	<g>
		<path fill="#929497" d="M273.9,101.7l-8-22.9c-0.2-0.5-0.7-0.9-1.3-0.9c-0.6,0-1.1,0.4-1.3,0.9l-6,17.2c0,0,0,0,0,0l-2,5.7
			c-0.1,0.2-0.1,0.5-0.1,0.8c0.1,0.5,0.4,0.9,0.9,1c0.3,0.1,0.5,0.1,0.8,0c0.5-0.1,0.8-0.5,0.9-0.9l1.7-4.7c0,0,0,0,0,0h9.5
			c0.2,0,0.4,0,0.5-0.1c0,0,0,0,0,0l1.7,4.9c0.2,0.5,0.7,0.9,1.3,0.9c0.2,0,0.3,0,0.5-0.1c0.3-0.1,0.6-0.4,0.8-0.7
			C274,102.4,274,102.1,273.9,101.7z M260.5,95.1l4.1-11.6c0,0,0,0,0,0l4.1,11.6c0,0,0,0,0,0L260.5,95.1
			C260.5,95.1,260.5,95.1,260.5,95.1z M257.8,96.2L257.8,96.2L257.8,96.2L257.8,96.2z"/>
		<path fill="#929497" d="M256.8,86.9c0-5-4.2-9-9.4-9h-8c-0.8,0-1.4,0.6-1.4,1.4v22.8c0,0.7,0.5,1.4,1.2,1.4
			c0.8,0.1,1.5-0.6,1.5-1.4v-6.3c0,0,0,0,0.1,0h5.8c0,0,0,0,0,0l3.6,6.9c0.2,0.5,0.7,0.7,1.2,0.7c0.2,0,0.4-0.1,0.6-0.2
			c0.7-0.4,0.9-1.2,0.6-1.9l-3.1-5.8c0,0,0,0,0,0C253.7,94.7,256.8,91.1,256.8,86.9z M240.7,93.2C240.7,93.2,240.7,93.2,240.7,93.2
			l-0.1-12.5c0,0,0,0,0,0h6.7c3.7,0,6.7,2.8,6.7,6.3c0,3.4-3,6.3-6.7,6.3L240.7,93.2z"/>
		<path fill="#929497" d="M225.7,77.9c-5.2,0-9.4,4-9.4,9v7.6c0,5,4.2,9,9.4,9c5.2,0,9.4-4,9.4-9v-7.6
			C235.1,81.9,230.9,77.9,225.7,77.9z M232.4,86.9v7.6c0,3.5-3,6.3-6.7,6.3c-3.7,0-6.7-2.8-6.7-6.3v-7.6c0-3.5,3-6.3,6.7-6.3
			C229.4,80.6,232.4,83.4,232.4,86.9z"/>
		<path fill="#929497" d="M211.7,77.9c-0.7,0.1-1.2,0.7-1.2,1.4v18.5c0,0,0,0,0,0l-13.6-19.3c-0.3-0.4-0.7-0.6-1.1-0.6
			c-0.3,0-0.5,0.1-0.8,0.2c-0.4,0.3-0.6,0.7-0.6,1.2v22.8c0,0.7,0.5,1.4,1.2,1.4c0.8,0.1,1.5-0.6,1.5-1.4V83.6c0,0,0,0,0,0l13,18.4
			c0.2,0.3,1,1.5,1.8,1.5c0.8,0,1.3-0.6,1.3-1.4V79.3C213.2,78.5,212.5,77.8,211.7,77.9z"/>
		<path fill="#929497" d="M182.3,77.9c-5.2,0-9.4,4-9.4,9v7.6c0,5,4.2,9,9.4,9c5.2,0,9.4-4,9.4-9v-7.6
			C191.7,81.9,187.4,77.9,182.3,77.9z M188.9,86.9v7.6c0,3.5-3,6.3-6.7,6.3c-3.7,0-6.7-2.8-6.7-6.3v-7.6c0-3.5,3-6.3,6.7-6.3
			C185.9,80.6,188.9,83.4,188.9,86.9z"/>
		<path fill="#929497" d="M161.1,85.5c-1.4-0.2-2.9-1-2.9-2.5c0-1.3,1.2-2.4,2.7-2.4c1.4,0,2.6,1.1,2.7,2.4c0,0.7,0.5,1.3,1.2,1.4
			c0.8,0.1,1.5-0.5,1.5-1.4c0-2.9-2.4-5.2-5.4-5.2c-3,0-5.4,2.3-5.4,5.2c0,2.6,2,4.6,5.2,5.2c3.2,0.5,6.9,2.5,6.9,6.3
			c0,3.5-3,6.3-6.7,6.3c-3.7,0-6.6-2.8-6.7-6.2c0-0.7-0.4-1.3-1.1-1.4c-0.9-0.2-1.7,0.5-1.7,1.3c0,5,4.2,9,9.4,9c5.2,0,9.4-4,9.4-9
			C170.3,90,166.7,86.5,161.1,85.5z"/>
	</g>
	<g>
		<path fill="#808184" d="M89.7,103c-0.3,0-0.7-0.2-0.8-0.5l-2-5.7c0,0,0,0,0,0c-0.1,0.3-0.4,0.5-0.8,0.5h-9.9c0,0,0,0,0,0l-1.8,5.1
			c-0.1,0.4-0.6,0.7-1,0.6c-0.5-0.1-0.7-0.6-0.6-1.1l2-5.7c0,0,0,0,0,0l6-17.1c0.1-0.2,0.2-0.4,0.5-0.5c0.5-0.2,1,0.1,1.1,0.5
			l8,22.9c0.1,0.4,0,0.8-0.3,1C90,102.9,89.8,103,89.7,103z M76.8,95.6C76.8,95.6,76.8,95.6,76.8,95.6l9.3,0c0.2,0,0.3,0,0.4,0.1
			l-4.9-14c0,0,0,0,0,0L76.8,95.6z"/>
		<path fill="#808184" d="M107.1,103c-0.3,0-0.6-0.2-0.7-0.4l-3.8-7.2c0,0,0,0,0,0h-6.1c-0.2,0-0.4-0.1-0.6-0.2c0,0,0,0,0,0v7
			c0,0.4-0.3,0.8-0.7,0.9c-0.5,0-0.9-0.3-0.9-0.8V79.3c0-0.5,0.4-0.8,0.8-0.8h8c4.9,0,8.9,3.8,8.9,8.5c0,4.2-3.3,7.7-7.5,8.4
			c0,0,0,0,0,0l3.4,6.5c0.2,0.4,0.1,0.9-0.3,1.1C107.4,102.9,107.2,103,107.1,103z M95.8,80.1v13.9c0,0,0,0,0,0
			c0.1-0.1,0.4-0.2,0.6-0.2h6.6c0,0,0,0,0,0c4,0,7.2-3.1,7.2-6.8c0-3.8-3.2-6.8-7.2-6.8L95.8,80.1C95.9,80.1,95.8,80.1,95.8,80.1z"
			/>
		<path fill="#808184" d="M149.5,103h-16.1c-0.5,0-0.8-0.4-0.8-0.8V79.3c0-0.5,0.4-0.8,0.8-0.8h16c0.4,0,0.8,0.3,0.9,0.7
			c0,0.5-0.3,0.9-0.8,0.9h-15.3c0,0,0,0,0,0v6.7c0,0,0,0,0,0c0.1-0.2,0.4-0.3,0.6-0.3h6.6c0.4,0,0.8,0.3,0.9,0.7
			c0,0.5-0.3,0.9-0.8,0.9h-6.6c-0.2,0-0.5-0.1-0.6-0.3c0,0,0,0,0,0v13.4c0,0,0,0,0,0h15.2c0.4,0,0.8,0.3,0.9,0.7
			C150.3,102.6,150,103,149.5,103z"/>
		<path fill="#808184" d="M120.3,103c-0.4,0-0.7-0.4-0.7-0.9v-22c0,0,0,0,0,0h-7.2c-0.4,0-0.8-0.3-0.9-0.7c0-0.5,0.3-0.9,0.8-0.9h16
			c0.4,0,0.8,0.3,0.9,0.7c0,0.5-0.3,0.9-0.8,0.9h-7.2c0,0,0,0,0,0v22.1C121.2,102.6,120.8,103,120.3,103z"/>
	</g>
</g>
<linearGradient id="SVGID_1_" gradientUnits="userSpaceOnUse" x1="0" y1="69.3612" x2="275" y2="69.3612">
	<stop  offset="0" style="stop-color:#808184"/>
	<stop  offset="9.227675e-02" style="stop-color:#8E8F92"/>
	<stop  offset="0.5203" style="stop-color:#CBCBCC"/>
	<stop  offset="0.8348" style="stop-color:#F1F1F1"/>
	<stop  offset="1" style="stop-color:#FFFFFF"/>
</linearGradient>
<rect x="0" y="69.2" fill="url(#SVGID_1_)" width="275" height="0.4"/>
</svg>
