<?xml version="1.0" encoding="utf-8"?>
<!-- Generator: Adobe Illustrator 18.1.1, SVG Export Plug-In . SVG Version: 6.00 Build 0)  -->
<svg version="1.1" id="Layer_1" xmlns="http://www.w3.org/2000/svg" xmlns:xlink="http://www.w3.org/1999/xlink" x="0px" y="0px"
	 viewBox="0 0 255.1 141.7" enable-background="new 0 0 255.1 141.7" xml:space="preserve">
<rect x="6.8" y="59.5" fill="#B3B3B3" width="3.5" height="20.1"/>
<rect x="17.9" y="34.5" fill="#B3B3B3" width="3.5" height="45.2"/>
<rect x="12.3" y="45.4" fill="#B3B3B3" width="3.5" height="34.2"/>
<rect x="1.3" y="73.1" fill="#B3B3B3" width="3.5" height="6.6"/>
<rect x="23.4" y="39.6" fill="#B3B3B3" width="3.5" height="40"/>
<rect x="34.6" y="27" fill="#B3B3B3" width="3.5" height="52.5"/>
<rect x="29" y="58.4" fill="#B3B3B3" width="3.5" height="21.2"/>
<rect x="40" y="15.9" fill="#B3B3B3" width="3.5" height="63.8"/>
<rect x="51.2" y="52" fill="#B3B3B3" width="3.5" height="27.6"/>
<rect x="45.6" y="22" fill="#B3B3B3" width="3.5" height="57.7"/>
<rect x="56.7" y="42.1" fill="#B3B3B3" width="3.5" height="37.5"/>
<rect x="67.8" y="66.5" fill="#B3B3B3" width="3.5" height="13.2"/>
<rect x="62.3" y="53.3" fill="#B3B3B3" width="3.5" height="26.3"/>
<rect x="73.6" y="71.2" fill="#B3B3B3" width="3.5" height="8.4"/>
<rect x="84.6" y="76.4" fill="#B3B3B3" width="3.5" height="3.3"/>
<rect x="79.1" y="77.5" fill="#B3B3B3" width="3.5" height="2.2"/>
<g>
	<rect x="62.3" y="79.6" fill="#989898" width="3.5" height="14.7"/>
	<rect x="51.2" y="79.6" fill="#989898" width="3.5" height="32.9"/>
	<rect x="56.7" y="79.6" fill="#989898" width="3.5" height="24.9"/>
	<rect x="67.8" y="79.6" fill="#989898" width="3.5" height="4.8"/>
	<rect x="79.1" y="79.6" fill="#989898" width="3.5" height="1.5"/>
	<rect x="73.6" y="79.6" fill="#989898" width="3.5" height="3.1"/>
	<rect x="84.6" y="79.6" fill="#989898" width="3.5" height="1.4"/>
	<rect x="45.6" y="79.6" fill="#989898" width="3.5" height="29.1"/>
	<rect x="34.6" y="79.6" fill="#989898" width="3.5" height="38.4"/>
	<rect x="40" y="79.6" fill="#989898" width="3.5" height="15.5"/>
	<rect x="29" y="79.6" fill="#989898" width="3.5" height="46.5"/>
	<rect x="17.9" y="79.6" fill="#989898" width="3.5" height="20.1"/>
	<rect x="23.4" y="79.6" fill="#989898" width="3.5" height="42.1"/>
	<rect x="12.3" y="79.6" fill="#989898" width="3.5" height="27.4"/>
	<rect x="1.3" y="79.6" fill="#989898" width="3.5" height="9.5"/>
	<rect x="6.8" y="79.6" fill="#989898" width="3.5" height="19.2"/>
</g>
<g>
	<g>
		<path fill="#B3B3B3" d="M253.7,109.4l-7.3-21.1c-0.2-0.5-0.7-0.8-1.2-0.8s-1,0.3-1.2,0.8l-5.5,15.8c0,0,0,0,0,0.1l-1.9,5.2
			c-0.1,0.3-0.1,0.5-0.1,0.7c0.1,0.4,0.4,0.8,0.8,0.9c0.3,0.1,0.5,0.1,0.8,0c0.4-0.1,0.8-0.4,0.8-0.8l1.5-4.4l0,0h8.7
			c0.2,0,0.3,0,0.5-0.1l0,0l1.6,4.5c0.2,0.5,0.7,0.8,1.2,0.8c0.2,0,0.3,0,0.4-0.1c0.3-0.1,0.6-0.3,0.8-0.7
			C253.8,110.1,253.8,109.7,253.7,109.4z M241.4,103.3l3.7-10.7l0,0l3.7,10.7l0,0H241.4L241.4,103.3z M238.8,104.3L238.8,104.3
			L238.8,104.3L238.8,104.3z"/>
		<path fill="#B3B3B3" d="M237.9,95.8c0-4.6-3.9-8.3-8.7-8.3h-7.4c-0.7,0-1.3,0.6-1.3,1.3v21c0,0.7,0.5,1.3,1.2,1.4
			c0.8,0.1,1.4-0.5,1.4-1.3v-5.7c0,0,0,0,0.1,0h5.3l0,0l3.4,6.3c0.3,0.4,0.7,0.7,1.1,0.7c0.2,0,0.4-0.1,0.6-0.2
			c0.6-0.3,0.8-1.1,0.5-1.7l-2.9-5.4l0,0C235,103,237.9,99.6,237.9,95.8z M223.1,101.5C223,101.5,223,101.5,223.1,101.5L223,90l0,0
			h6.2c3.4,0,6.2,2.6,6.2,5.7c0,3.2-2.8,5.7-6.2,5.7H223.1z"/>
		<path fill="#B3B3B3" d="M209.2,87.4c-4.8,0-8.7,3.7-8.7,8.3v7c0,4.6,3.9,8.3,8.7,8.3c4.8,0,8.7-3.7,8.7-8.3v-7
			C218,91.2,214.1,87.4,209.2,87.4z M215.4,95.8v7c0,3.2-2.8,5.7-6.2,5.7s-6.2-2.6-6.2-5.7v-7c0-3.2,2.8-5.7,6.2-5.7
			S215.4,92.6,215.4,95.8z"/>
		<path fill="#B3B3B3" d="M196.3,87.5c-0.7,0.1-1.2,0.7-1.2,1.4v17l0,0L182.6,88c-0.3-0.3-0.6-0.5-1-0.5c-0.3,0-0.5,0.1-0.7,0.3
			c-0.3,0.3-0.6,0.7-0.6,1.1v21c0,0.7,0.5,1.3,1.2,1.4c0.8,0.1,1.4-0.5,1.4-1.3V92.7l0,0l11.9,17c0.3,0.3,0.8,1.4,1.7,1.4
			c0.8,0,1.2-0.5,1.2-1.3V88.7C197.7,88,197.1,87.4,196.3,87.5z"/>
		<path fill="#B3B3B3" d="M169.2,87.4c-4.8,0-8.7,3.7-8.7,8.3v7c0,4.6,3.9,8.3,8.7,8.3c4.8,0,8.7-3.7,8.7-8.3v-7
			C177.9,91.2,173.9,87.4,169.2,87.4z M175.4,95.8v7c0,3.2-2.8,5.7-6.2,5.7s-6.2-2.6-6.2-5.7v-7c0-3.2,2.8-5.7,6.2-5.7
			C172.6,90,175.4,92.6,175.4,95.8z"/>
		<path fill="#B3B3B3" d="M149.7,94.5c-1.3-0.3-2.6-0.9-2.6-2.3c0-1.3,1.1-2.3,2.4-2.3c1.4,0,2.4,1,2.4,2.2c0,0.7,0.4,1.3,1.1,1.3
			c0.8,0.1,1.4-0.5,1.4-1.3c0-2.6-2.2-4.8-5-4.8c-2.8,0-5,2.1-5,4.8c0,2.4,1.9,4.3,4.7,4.7c3,0.5,6.3,2.3,6.3,5.8
			c0,3.2-2.8,5.7-6.2,5.7c-3.4,0-6.1-2.5-6.2-5.7c0-0.6-0.4-1.2-1-1.3c-0.8-0.2-1.5,0.4-1.5,1.3c0,4.6,3.9,8.3,8.7,8.3
			c4.8,0,8.7-3.7,8.7-8.3C158.1,98.7,154.8,95.4,149.7,94.5z"/>
	</g>
	<g>
		<path fill="#B3B3B3" d="M83.9,110.6c-0.3,0-0.6-0.2-0.7-0.5l-1.9-5.2l0,0c-0.1,0.3-0.4,0.5-0.7,0.5h-9.2l0,0l-1.7,4.7
			c-0.2,0.3-0.5,0.6-0.9,0.5c-0.4-0.1-0.7-0.6-0.5-1l1.9-5.2l0,0l5.5-15.8c0.1-0.2,0.3-0.4,0.4-0.5c0.4-0.2,0.8,0.1,1,0.4l7.3,21
			c0.1,0.3,0,0.8-0.3,0.9C84.1,110.6,84,110.6,83.9,110.6z M72,103.8L72,103.8h8.6c0.2,0,0.3,0,0.4,0.1l-4.5-12.8l0,0L72,103.8z"/>
		<path fill="#B3B3B3" d="M99.9,110.6c-0.3,0-0.5-0.2-0.7-0.4l-3.5-6.6l0,0h-5.7c-0.2,0-0.4-0.1-0.5-0.3l0,0v6.4
			c0,0.4-0.3,0.8-0.7,0.8c-0.4,0-0.8-0.3-0.8-0.8V88.7c0-0.4,0.3-0.8,0.8-0.8h7.4c4.5,0,8.2,3.5,8.2,7.8c0,3.9-3,7.2-6.9,7.7l0,0
			l3.1,5.9c0.2,0.3,0.1,0.8-0.3,1C100.2,110.6,100.1,110.6,99.9,110.6z M89.5,89.5v12.8l0,0c0.2-0.2,0.3-0.3,0.5-0.3h6.1l0,0
			c3.6,0,6.7-2.8,6.7-6.3c0-3.5-3-6.3-6.7-6.3L89.5,89.5C89.5,89.4,89.5,89.4,89.5,89.5z"/>
		<path fill="#B3B3B3" d="M139,110.6h-14.8c-0.4,0-0.8-0.3-0.8-0.8V88.7c0-0.4,0.3-0.8,0.8-0.8H139c0.4,0,0.8,0.3,0.8,0.7
			c0,0.4-0.3,0.8-0.8,0.8h-14.1l0,0v6.2l0,0c0.2-0.2,0.3-0.3,0.6-0.3h6c0.4,0,0.8,0.3,0.8,0.7c0,0.4-0.3,0.8-0.8,0.8h-6.1
			c-0.3,0-0.4-0.1-0.6-0.3l0,0V109l0,0h14c0.4,0,0.8,0.3,0.8,0.7C139.8,110.2,139.5,110.6,139,110.6z"/>
		<path fill="#B3B3B3" d="M112.1,110.6c-0.4,0-0.7-0.4-0.7-0.8V89.4l0,0h-6.6c-0.4,0-0.8-0.3-0.8-0.7c0-0.4,0.3-0.8,0.8-0.8h14.8
			c0.4,0,0.8,0.3,0.8,0.7c0,0.4-0.3,0.8-0.8,0.8h-6.7l0,0v20.4C112.9,110.3,112.5,110.7,112.1,110.6z"/>
	</g>
</g>
<rect x="1.8" y="79.4" fill="#B3B3B3" width="252.9" height="0.4"/>
</svg>
