<?xml version="1.0" encoding="utf-8"?>
<!-- Generator: Adobe Illustrator 18.1.1, SVG Export Plug-In . SVG Version: 6.00 Build 0)  -->
<svg version="1.2" baseProfile="tiny" id="Layer_1" xmlns="http://www.w3.org/2000/svg" xmlns:xlink="http://www.w3.org/1999/xlink"
	 x="0px" y="0px" viewBox="0 0 35 45" xml:space="preserve">
<g>
	<g>
		<g>
			<path fill="#B3B3B3" d="M27.2,43.8H7.8c-3.6,0-6.6-3-6.6-6.6V7.9c0-3.6,3-6.6,6.6-6.6h19.5c3.6,0,6.6,3,6.6,6.6v29.2
				C33.8,40.8,30.9,43.8,27.2,43.8z M7.8,3.3c-2.5,0-4.6,2.1-4.6,4.6v29.2c0,2.5,2.1,4.6,4.6,4.6h19.5c2.5,0,4.6-2.1,4.6-4.6V7.9
				c0-2.5-2.1-4.6-4.6-4.6H7.8z"/>
		</g>
	</g>
	<g>
		<g>
			<path fill="#B3B3B3" d="M26.2,31.8H8.8c-2,0-3.6-1.6-3.6-3.6V8.9c0-2,1.6-3.6,3.6-3.6h17.5c2,0,3.6,1.6,3.6,3.6v19.4
				C29.8,30.2,28.2,31.8,26.2,31.8z M8.8,7.3C7.9,7.3,7.2,8,7.2,8.9v19.4c0,0.9,0.7,1.6,1.6,1.6h17.5c0.9,0,1.6-0.7,1.6-1.6V8.9
				c0-0.9-0.7-1.6-1.6-1.6H8.8z"/>
		</g>
	</g>
	<g>
		<path fill="#B3B3B3" d="M17.5,40.4c-2,0-3.6-1.6-3.6-3.6s1.6-3.6,3.6-3.6s3.6,1.6,3.6,3.6S19.5,40.4,17.5,40.4z M17.5,35.2
			c-0.9,0-1.6,0.7-1.6,1.6s0.7,1.6,1.6,1.6c0.9,0,1.6-0.7,1.6-1.6S18.4,35.2,17.5,35.2z"/>
	</g>
</g>
</svg>
