<?xml version="1.0" encoding="utf-8"?>
<!-- Generator: Adobe Illustrator 18.1.1, SVG Export Plug-In . SVG Version: 6.00 Build 0)  -->
<svg version="1.2" baseProfile="tiny" id="Layer_1" xmlns="http://www.w3.org/2000/svg" xmlns:xlink="http://www.w3.org/1999/xlink"
	 x="0px" y="0px" viewBox="659.5 407.1 40 35" xml:space="preserve">
<g>
	<g>
		<path fill="#B3B3B3" d="M691.6,440.9h-24.1c-3.6,0-6.6-3-6.6-6.6v-19.5c0-3.6,3-6.6,6.6-6.6h24.1c3.6,0,6.6,3,6.6,6.6v19.5
			C698.2,438,695.2,440.9,691.6,440.9z M667.5,410.2c-2.5,0-4.6,2.1-4.6,4.6v19.5c0,2.5,2.1,4.6,4.6,4.6h24.1c2.5,0,4.6-2.1,4.6-4.6
			v-19.5c0-2.5-2.1-4.6-4.6-4.6H667.5z"/>
	</g>
	<g>
		<path fill="#B3B3B3" d="M679.5,431.2c-1.8,0-3.4-0.7-4.7-1.9l-13.7-13.7l1.4-1.4l13.7,13.7c0.9,0.9,2,1.4,3.3,1.4
			c1.2,0,2.4-0.5,3.3-1.4l13.7-13.7l1.4,1.4l-13.7,13.7C682.9,430.5,681.3,431.2,679.5,431.2z"/>
	</g>
	<g>
		
			<rect x="685.5" y="428.4" transform="matrix(0.7071 0.7071 -0.7071 0.7071 506.404 -363.7578)" fill="#B3B3B3" width="13.8" height="2"/>
	</g>
	<g>
		
			<rect x="665.7" y="422.6" transform="matrix(0.7071 0.7071 -0.7071 0.7071 498.9423 -345.6596)" fill="#B3B3B3" width="2" height="13.8"/>
	</g>
</g>
</svg>
