<?xml version="1.0" encoding="utf-8"?>
<!-- Generator: Adobe Illustrator 18.1.1, SVG Export Plug-In . SVG Version: 6.00 Build 0)  -->
<svg version="1.2" baseProfile="tiny" id="Layer_1" xmlns="http://www.w3.org/2000/svg" xmlns:xlink="http://www.w3.org/1999/xlink"
	 x="0px" y="0px" viewBox="0 0 153 20" xml:space="preserve">
<g>
	<g>
		<g>
			<path fill="#808080" d="M152.9,18.4l-6.1-17.4c-0.1-0.4-0.5-0.7-1-0.7c-0.4,0-0.8,0.3-1,0.7l-4.6,13c0,0,0,0,0,0l-1.5,4.3
				c-0.1,0.2-0.1,0.4,0,0.6c0.1,0.4,0.3,0.6,0.7,0.8c0.2,0.1,0.4,0.1,0.6,0c0.3-0.1,0.6-0.4,0.7-0.7l1.3-3.6c0,0,0,0,0,0h7.2
				c0.1,0,0.3,0,0.4-0.1c0,0,0,0,0,0l1.3,3.7c0.1,0.4,0.5,0.7,1,0.7c0.1,0,0.2,0,0.3-0.1c0.3-0.1,0.5-0.3,0.6-0.5
				C153,18.9,153,18.6,152.9,18.4z M142.8,13.3l3.1-8.8c0,0,0,0,0,0l3.1,8.8c0,0,0,0,0,0L142.8,13.3
				C142.8,13.3,142.8,13.3,142.8,13.3z M140.7,14.2L140.7,14.2L140.7,14.2L140.7,14.2z"/>
			<path fill="#808080" d="M139.9,7.1c0-3.8-3.2-6.8-7.2-6.8h-6.1c-0.6,0-1.1,0.5-1.1,1.1v17.4c0,0.5,0.4,1,0.9,1.1
				c0.6,0.1,1.1-0.4,1.1-1v-4.8c0,0,0,0,0,0h4.4c0,0,0,0,0,0l2.8,5.2c0.2,0.3,0.5,0.6,0.9,0.6c0.2,0,0.3,0,0.5-0.1
				c0.5-0.3,0.7-0.9,0.4-1.4l-2.3-4.4c0,0,0,0,0,0C137.6,13,139.9,10.3,139.9,7.1z M127.7,11.9C127.7,11.9,127.7,11.9,127.7,11.9
				l0-9.5c0,0,0,0,0,0h5.1c2.8,0,5.1,2.1,5.1,4.8c0,2.6-2.3,4.8-5.1,4.8L127.7,11.9z"/>
			<path fill="#808080" d="M116.3,0.2c-3.9,0-7.2,3.1-7.2,6.8v5.8c0,3.8,3.2,6.8,7.2,6.8c3.9,0,7.2-3.1,7.2-6.8V7.1
				C123.4,3.3,120.2,0.2,116.3,0.2z M121.4,7.1v5.8c0,2.6-2.3,4.8-5.1,4.8s-5.1-2.1-5.1-4.8V7.1c0-2.6,2.3-4.8,5.1-4.8
				S121.4,4.5,121.4,7.1z"/>
			<path fill="#808080" d="M105.6,0.3c-0.5,0-0.9,0.5-0.9,1.1v14c0,0,0,0,0,0L94.3,0.7c-0.2-0.3-0.5-0.4-0.9-0.4
				c-0.2,0-0.4,0.1-0.6,0.2c-0.3,0.2-0.5,0.5-0.5,0.9v17.3c0,0.5,0.4,1,0.9,1.1c0.6,0.1,1.1-0.4,1.1-1V4.6c0,0,0,0,0,0l9.8,14
				c0.2,0.3,0.7,1.1,1.4,1.1c0.6,0,1-0.4,1-1V1.3C106.8,0.7,106.2,0.2,105.6,0.3z"/>
			<path fill="#808080" d="M83.2,0.2c-3.9,0-7.2,3.1-7.2,6.8v5.8c0,3.8,3.2,6.8,7.2,6.8c3.9,0,7.2-3.1,7.2-6.8V7.1
				C90.4,3.3,87.2,0.2,83.2,0.2z M88.3,7.1v5.8c0,2.6-2.3,4.8-5.1,4.8c-2.8,0-5.1-2.1-5.1-4.8V7.1c0-2.6,2.3-4.8,5.1-4.8
				C86,2.3,88.3,4.5,88.3,7.1z"/>
			<path fill="#808080" d="M67.1,6.1c-1.1-0.2-2.2-0.8-2.2-1.9c0-1,0.9-1.9,2-1.9c1.1,0,2,0.8,2,1.8c0,0.5,0.4,1,0.9,1.1
				c0.6,0.1,1.2-0.4,1.2-1c0-2.2-1.8-3.9-4.1-3.9S62.9,2,62.9,4.2c0,2,1.5,3.5,3.9,3.9C69.2,8.5,72,10,72,12.9
				c0,2.6-2.3,4.8-5.1,4.8c-2.8,0-5-2.1-5.1-4.7c0-0.5-0.3-1-0.8-1.1c-0.7-0.2-1.3,0.4-1.3,1c0,3.8,3.2,6.8,7.2,6.8s7.2-3.1,7.2-6.8
				C74.1,9.5,71.4,6.8,67.1,6.1z"/>
		</g>
		<g>
			<path fill="#808080" d="M12.8,19.3c-0.3,0-0.5-0.2-0.6-0.4l-1.5-4.3c0,0,0,0,0,0c-0.1,0.2-0.3,0.4-0.6,0.4H2.6c0,0,0,0,0,0
				l-1.4,3.9c-0.1,0.3-0.4,0.5-0.8,0.4c-0.4-0.1-0.6-0.5-0.4-0.8l1.5-4.3c0,0,0,0,0,0l4.6-13c0.1-0.2,0.2-0.3,0.3-0.4
				c0.4-0.1,0.7,0,0.8,0.4l6.1,17.4c0.1,0.3,0,0.6-0.2,0.8C13.1,19.3,12.9,19.3,12.8,19.3z M3,13.7C3,13.7,3,13.7,3,13.7l7.1,0
				c0.1,0,0.2,0,0.3,0.1L6.7,3.2c0,0,0,0,0,0L3,13.7z"/>
			<path fill="#808080" d="M26.1,19.3c-0.2,0-0.4-0.1-0.6-0.3l-2.9-5.5c0,0,0,0,0,0H18c-0.2,0-0.3-0.1-0.4-0.2c0,0,0,0,0,0v5.3
				c0,0.3-0.2,0.6-0.6,0.7c-0.4,0-0.7-0.3-0.7-0.6V1.3c0-0.3,0.3-0.6,0.6-0.6H23c3.7,0,6.7,2.9,6.7,6.4c0,3.2-2.5,5.9-5.7,6.4
				c0,0,0,0,0,0l2.6,4.9c0.2,0.3,0.1,0.7-0.2,0.9C26.3,19.3,26.2,19.3,26.1,19.3z M17.5,1.9v10.5c0,0,0,0,0,0
				c0.1-0.1,0.3-0.2,0.4-0.2h5c0,0,0,0,0,0c3,0,5.5-2.3,5.5-5.2c0-2.9-2.5-5.2-5.5-5.2L17.5,1.9C17.5,1.9,17.5,1.9,17.5,1.9z"/>
			<path fill="#808080" d="M58.3,19.3H46.1c-0.3,0-0.6-0.3-0.6-0.6V1.3c0-0.3,0.3-0.6,0.6-0.6l12.2,0c0.3,0,0.6,0.2,0.7,0.6
				c0,0.4-0.3,0.7-0.6,0.7H46.7c0,0,0,0,0,0V7c0,0,0,0,0,0c0.1-0.1,0.3-0.2,0.5-0.2h5c0.3,0,0.6,0.2,0.7,0.6c0,0.4-0.3,0.7-0.6,0.7
				h-5c-0.2,0-0.3-0.1-0.5-0.2c0,0,0,0,0,0v10.2c0,0,0,0,0,0h11.6c0.3,0,0.6,0.2,0.7,0.6C59,19,58.7,19.3,58.3,19.3z"/>
			<path fill="#808080" d="M36.1,19.3c-0.3,0-0.6-0.3-0.6-0.7V1.9c0,0,0,0,0,0l-5.4,0c-0.3,0-0.6-0.2-0.7-0.6c0-0.4,0.3-0.7,0.6-0.7
				l12.2,0c0.3,0,0.6,0.2,0.7,0.6c0,0.4-0.3,0.7-0.6,0.7h-5.5c0,0,0,0,0,0v16.8C36.8,19.1,36.5,19.4,36.1,19.3z"/>
		</g>
	</g>
</g>
</svg>
